<svg width="138" height="27" viewBox="0 0 138 27" fill="none" xmlns="http://www.w3.org/2000/svg">
<path d="M16.2925 5.2975C16.1525 5.5425 16.0008 5.72333 15.8375 5.84C15.6858 5.945 15.4933 5.9975 15.26 5.9975C15.015 5.9975 14.7467 5.91 14.455 5.735C14.175 5.54833 13.8367 5.34417 13.44 5.1225C13.0433 4.90083 12.5767 4.7025 12.04 4.5275C11.515 4.34083 10.8908 4.2475 10.1675 4.2475C9.51417 4.2475 8.9425 4.32917 8.4525 4.4925C7.9625 4.64417 7.54833 4.86 7.21 5.14C6.88333 5.42 6.63833 5.75833 6.475 6.155C6.31167 6.54 6.23 6.96583 6.23 7.4325C6.23 8.0275 6.39333 8.52333 6.72 8.92C7.05833 9.31667 7.50167 9.655 8.05 9.935C8.59833 10.215 9.2225 10.4658 9.9225 10.6875C10.6225 10.9092 11.34 11.1483 12.075 11.405C12.81 11.65 13.5275 11.9417 14.2275 12.28C14.9275 12.6067 15.5517 13.0267 16.1 13.54C16.6483 14.0417 17.0858 14.66 17.4125 15.395C17.7508 16.13 17.92 17.0225 17.92 18.0725C17.92 19.2158 17.7217 20.2892 17.325 21.2925C16.94 22.2842 16.3683 23.1533 15.61 23.9C14.8633 24.635 13.9475 25.2183 12.8625 25.65C11.7775 26.07 10.535 26.28 9.135 26.28C8.33 26.28 7.53667 26.1983 6.755 26.035C5.97333 25.8833 5.22083 25.6617 4.4975 25.37C3.78583 25.0783 3.115 24.7283 2.485 24.32C1.855 23.9117 1.295 23.4567 0.805 22.955L2.1875 20.6975C2.30417 20.5342 2.45583 20.4 2.6425 20.295C2.82917 20.1783 3.0275 20.12 3.2375 20.12C3.52917 20.12 3.84417 20.2425 4.1825 20.4875C4.52083 20.7208 4.92333 20.9833 5.39 21.275C5.85667 21.5667 6.39917 21.835 7.0175 22.08C7.6475 22.3133 8.4 22.43 9.275 22.43C10.6167 22.43 11.655 22.115 12.39 21.485C13.125 20.8433 13.4925 19.9275 13.4925 18.7375C13.4925 18.0725 13.3233 17.53 12.985 17.11C12.6583 16.69 12.2208 16.34 11.6725 16.06C11.1242 15.7683 10.5 15.5233 9.8 15.325C9.1 15.1267 8.38833 14.9108 7.665 14.6775C6.94167 14.4442 6.23 14.1642 5.53 13.8375C4.83 13.5108 4.20583 13.085 3.6575 12.56C3.10917 12.035 2.66583 11.3817 2.3275 10.6C2.00083 9.80667 1.8375 8.8325 1.8375 7.6775C1.8375 6.75583 2.01833 5.8575 2.38 4.9825C2.75333 4.1075 3.29 3.33167 3.99 2.655C4.69 1.97833 5.55333 1.43583 6.58 1.0275C7.60667 0.619166 8.785 0.415 10.115 0.415C11.6083 0.415 12.985 0.648333 14.245 1.115C15.505 1.58167 16.5783 2.235 17.465 3.075L16.2925 5.2975ZM30.5897 18.335C29.3414 18.3933 28.2914 18.5042 27.4397 18.6675C26.5881 18.8192 25.9056 19.0175 25.3922 19.2625C24.8789 19.5075 24.5114 19.7933 24.2897 20.12C24.0681 20.4467 23.9572 20.8025 23.9572 21.1875C23.9572 21.9458 24.1789 22.4883 24.6222 22.815C25.0772 23.1417 25.6664 23.305 26.3897 23.305C27.2764 23.305 28.0406 23.1475 28.6822 22.8325C29.3356 22.5058 29.9714 22.0158 30.5897 21.3625V18.335ZM20.6847 10.5475C22.7497 8.6575 25.2347 7.7125 28.1397 7.7125C29.1897 7.7125 30.1289 7.8875 30.9572 8.2375C31.7856 8.57583 32.4856 9.05417 33.0572 9.6725C33.6289 10.2792 34.0606 11.0083 34.3522 11.86C34.6556 12.7117 34.8072 13.645 34.8072 14.66V26H32.8472C32.4389 26 32.1239 25.9417 31.9022 25.825C31.6806 25.6967 31.5056 25.4458 31.3772 25.0725L30.9922 23.7775C30.5372 24.1858 30.0939 24.5475 29.6622 24.8625C29.2306 25.1658 28.7814 25.4225 28.3147 25.6325C27.8481 25.8425 27.3464 26 26.8097 26.105C26.2847 26.2217 25.7014 26.28 25.0597 26.28C24.3014 26.28 23.6014 26.1808 22.9597 25.9825C22.3181 25.7725 21.7639 25.4633 21.2972 25.055C20.8306 24.6467 20.4689 24.1392 20.2122 23.5325C19.9556 22.9258 19.8272 22.22 19.8272 21.415C19.8272 20.96 19.9031 20.5108 20.0547 20.0675C20.2064 19.6125 20.4514 19.1808 20.7897 18.7725C21.1397 18.3642 21.5889 17.9792 22.1372 17.6175C22.6856 17.2558 23.3564 16.9408 24.1497 16.6725C24.9547 16.4042 25.8881 16.1883 26.9497 16.025C28.0114 15.85 29.2247 15.745 30.5897 15.71V14.66C30.5897 13.4583 30.3331 12.5717 29.8197 12C29.3064 11.4167 28.5656 11.125 27.5972 11.125C26.8972 11.125 26.3139 11.2067 25.8472 11.37C25.3922 11.5333 24.9897 11.72 24.6397 11.93C24.2897 12.1283 23.9689 12.3092 23.6772 12.4725C23.3972 12.6358 23.0822 12.7175 22.7322 12.7175C22.4289 12.7175 22.1722 12.6417 21.9622 12.49C21.7522 12.3267 21.5831 12.14 21.4547 11.93L20.6847 10.5475ZM39.8305 26V11.3L38.273 11.055C37.9347 10.985 37.6605 10.8683 37.4505 10.705C37.2522 10.53 37.153 10.285 37.153 9.97V8.2025H39.8305V6.8725C39.8305 5.84583 39.9822 4.92417 40.2855 4.1075C40.6005 3.29083 41.0439 2.59666 41.6155 2.025C42.1989 1.45333 42.9047 1.01583 43.733 0.712499C44.5614 0.409165 45.4947 0.257499 46.533 0.257499C47.3614 0.257499 48.1314 0.368332 48.843 0.59L48.7555 2.76C48.7439 2.92333 48.6972 3.0575 48.6155 3.1625C48.5339 3.25583 48.423 3.33167 48.283 3.39C48.1547 3.43667 48.003 3.47167 47.828 3.495C47.653 3.50667 47.4664 3.5125 47.268 3.5125C46.7547 3.5125 46.2939 3.57083 45.8855 3.6875C45.4889 3.7925 45.1505 3.985 44.8705 4.265C44.5905 4.53333 44.3747 4.895 44.223 5.35C44.083 5.79333 44.013 6.3475 44.013 7.0125V8.2025H48.6855V11.2825H44.153V26H39.8305ZM62.2035 14.9575C62.2035 14.3975 62.1218 13.8725 61.9585 13.3825C61.8068 12.8808 61.5735 12.4433 61.2585 12.07C60.9435 11.6967 60.541 11.405 60.051 11.195C59.5726 10.9733 59.0126 10.8625 58.371 10.8625C57.1226 10.8625 56.1368 11.2183 55.4135 11.93C54.7018 12.6417 54.2468 13.6508 54.0485 14.9575H62.2035ZM53.961 17.565C54.031 18.4867 54.1943 19.2858 54.451 19.9625C54.7076 20.6275 55.046 21.1817 55.466 21.625C55.886 22.0567 56.3818 22.3833 56.9535 22.605C57.5368 22.815 58.1785 22.92 58.8785 22.92C59.5785 22.92 60.1793 22.8383 60.681 22.675C61.1943 22.5117 61.6376 22.3308 62.011 22.1325C62.396 21.9342 62.7285 21.7533 63.0085 21.59C63.3001 21.4267 63.5801 21.345 63.8485 21.345C64.2101 21.345 64.4785 21.4792 64.6535 21.7475L65.896 23.3225C65.4176 23.8825 64.881 24.355 64.286 24.74C63.691 25.1133 63.0668 25.4167 62.4135 25.65C61.7718 25.8717 61.1126 26.0292 60.436 26.1225C59.771 26.2158 59.1235 26.2625 58.4935 26.2625C57.2451 26.2625 56.0843 26.0583 55.011 25.65C53.9376 25.23 53.0043 24.6175 52.211 23.8125C51.4176 22.9958 50.7935 21.9925 50.3385 20.8025C49.8835 19.6008 49.656 18.2125 49.656 16.6375C49.656 15.4125 49.8543 14.2633 50.251 13.19C50.6476 12.105 51.2135 11.1658 51.9485 10.3725C52.6951 9.5675 53.5993 8.93167 54.661 8.465C55.7343 7.99833 56.9418 7.765 58.2835 7.765C59.4151 7.765 60.4593 7.94583 61.416 8.3075C62.3726 8.66917 63.1951 9.2 63.8835 9.9C64.5718 10.5883 65.1085 11.44 65.4935 12.455C65.8901 13.4583 66.0885 14.6075 66.0885 15.9025C66.0885 16.5558 66.0185 16.9992 65.8785 17.2325C65.7385 17.4542 65.4701 17.565 65.0735 17.565H53.961ZM83.148 5.2975C83.008 5.5425 82.8563 5.72333 82.693 5.84C82.5413 5.945 82.3488 5.9975 82.1155 5.9975C81.8705 5.9975 81.6021 5.91 81.3105 5.735C81.0305 5.54833 80.6921 5.34417 80.2955 5.1225C79.8988 4.90083 79.4321 4.7025 78.8955 4.5275C78.3705 4.34083 77.7463 4.2475 77.023 4.2475C76.3696 4.2475 75.798 4.32917 75.308 4.4925C74.818 4.64417 74.4038 4.86 74.0655 5.14C73.7388 5.42 73.4938 5.75833 73.3305 6.155C73.1671 6.54 73.0855 6.96583 73.0855 7.4325C73.0855 8.0275 73.2488 8.52333 73.5755 8.92C73.9138 9.31667 74.3571 9.655 74.9055 9.935C75.4538 10.215 76.078 10.4658 76.778 10.6875C77.478 10.9092 78.1955 11.1483 78.9305 11.405C79.6655 11.65 80.383 11.9417 81.083 12.28C81.783 12.6067 82.4071 13.0267 82.9555 13.54C83.5038 14.0417 83.9413 14.66 84.268 15.395C84.6063 16.13 84.7755 17.0225 84.7755 18.0725C84.7755 19.2158 84.5771 20.2892 84.1805 21.2925C83.7955 22.2842 83.2238 23.1533 82.4655 23.9C81.7188 24.635 80.803 25.2183 79.718 25.65C78.633 26.07 77.3905 26.28 75.9905 26.28C75.1855 26.28 74.3921 26.1983 73.6105 26.035C72.8288 25.8833 72.0763 25.6617 71.353 25.37C70.6413 25.0783 69.9705 24.7283 69.3405 24.32C68.7105 23.9117 68.1505 23.4567 67.6605 22.955L69.043 20.6975C69.1596 20.5342 69.3113 20.4 69.498 20.295C69.6846 20.1783 69.883 20.12 70.093 20.12C70.3846 20.12 70.6996 20.2425 71.038 20.4875C71.3763 20.7208 71.7788 20.9833 72.2455 21.275C72.7121 21.5667 73.2546 21.835 73.873 22.08C74.503 22.3133 75.2555 22.43 76.1305 22.43C77.4721 22.43 78.5105 22.115 79.2455 21.485C79.9805 20.8433 80.348 19.9275 80.348 18.7375C80.348 18.0725 80.1788 17.53 79.8405 17.11C79.5138 16.69 79.0763 16.34 78.528 16.06C77.9796 15.7683 77.3555 15.5233 76.6555 15.325C75.9555 15.1267 75.2438 14.9108 74.5205 14.6775C73.7971 14.4442 73.0855 14.1642 72.3855 13.8375C71.6855 13.5108 71.0613 13.085 70.513 12.56C69.9646 12.035 69.5213 11.3817 69.183 10.6C68.8563 9.80667 68.693 8.8325 68.693 7.6775C68.693 6.75583 68.8738 5.8575 69.2355 4.9825C69.6088 4.1075 70.1455 3.33167 70.8455 2.655C71.5455 1.97833 72.4088 1.43583 73.4355 1.0275C74.4621 0.619166 75.6405 0.415 76.9705 0.415C78.4638 0.415 79.8405 0.648333 81.1005 1.115C82.3605 1.58167 83.4338 2.235 84.3205 3.075L83.148 5.2975ZM103.362 8.045V26H100.719C100.148 26 99.786 25.7375 99.6343 25.2125L99.3368 23.7775C98.6018 24.5242 97.791 25.1308 96.9043 25.5975C96.0177 26.0525 94.9735 26.28 93.7718 26.28C92.7918 26.28 91.9227 26.1167 91.1643 25.79C90.4177 25.4517 89.7877 24.9792 89.2743 24.3725C88.761 23.7658 88.3702 23.0483 88.1018 22.22C87.8452 21.38 87.7168 20.4583 87.7168 19.455V8.045H92.0393V19.455C92.0393 20.5517 92.2902 21.4033 92.7918 22.01C93.3052 22.605 94.0693 22.9025 95.0843 22.9025C95.831 22.9025 96.531 22.7392 97.1843 22.4125C97.8377 22.0742 98.456 21.6133 99.0393 21.03V8.045H103.362ZM111.725 11.16C112.285 10.0867 112.95 9.24667 113.72 8.64C114.49 8.02167 115.4 7.7125 116.45 7.7125C117.279 7.7125 117.944 7.89333 118.445 8.255L118.165 11.4925C118.107 11.7025 118.019 11.8542 117.903 11.9475C117.798 12.0292 117.652 12.07 117.465 12.07C117.29 12.07 117.028 12.0408 116.678 11.9825C116.339 11.9242 116.007 11.895 115.68 11.895C115.202 11.895 114.776 11.965 114.403 12.105C114.029 12.245 113.691 12.4492 113.388 12.7175C113.096 12.9742 112.834 13.2892 112.6 13.6625C112.379 14.0358 112.169 14.4617 111.97 14.94V26H107.648V8.045H110.185C110.629 8.045 110.938 8.12667 111.113 8.29C111.288 8.44167 111.404 8.72167 111.463 9.13L111.725 11.16ZM121.964 26V11.3L120.407 11.055C120.069 10.985 119.794 10.8683 119.584 10.705C119.386 10.53 119.287 10.285 119.287 9.97V8.2025H121.964V6.8725C121.964 5.84583 122.116 4.92417 122.419 4.1075C122.734 3.29083 123.178 2.59666 123.749 2.025C124.333 1.45333 125.039 1.01583 125.867 0.712499C126.695 0.409165 127.629 0.257499 128.667 0.257499C129.495 0.257499 130.265 0.368332 130.977 0.59L130.889 2.76C130.878 2.92333 130.831 3.0575 130.749 3.1625C130.668 3.25583 130.557 3.33167 130.417 3.39C130.289 3.43667 130.137 3.47167 129.962 3.495C129.787 3.50667 129.6 3.5125 129.402 3.5125C128.889 3.5125 128.428 3.57083 128.019 3.6875C127.623 3.7925 127.284 3.985 127.004 4.265C126.724 4.53333 126.509 4.895 126.357 5.35C126.217 5.79333 126.147 6.3475 126.147 7.0125V8.2025H130.819V11.2825H126.287V26H121.964ZM131.866 23.62C131.866 23.2583 131.93 22.9142 132.059 22.5875C132.199 22.2608 132.385 21.9808 132.619 21.7475C132.852 21.5142 133.132 21.3275 133.459 21.1875C133.785 21.0475 134.135 20.9775 134.509 20.9775C134.882 20.9775 135.226 21.0475 135.541 21.1875C135.868 21.3275 136.148 21.5142 136.381 21.7475C136.626 21.9808 136.819 22.2608 136.959 22.5875C137.099 22.9142 137.169 23.2583 137.169 23.62C137.169 23.9933 137.099 24.3433 136.959 24.67C136.819 24.985 136.626 25.2592 136.381 25.4925C136.148 25.7258 135.868 25.9067 135.541 26.035C135.226 26.175 134.882 26.245 134.509 26.245C134.135 26.245 133.785 26.175 133.459 26.035C133.132 25.9067 132.852 25.7258 132.619 25.4925C132.385 25.2592 132.199 24.985 132.059 24.67C131.93 24.3433 131.866 23.9933 131.866 23.62Z" fill="url(#paint0_linear_131_3)"/>
<defs>
<linearGradient id="paint0_linear_131_3" x1="16.2067" y1="-9" x2="146.225" y2="38.8986" gradientUnits="userSpaceOnUse">
<stop stop-color="#83C0F8"/>
<stop offset="0.723958" stop-color="#C335FD" stop-opacity="0.62"/>
<stop offset="1" stop-color="#DB00FF" stop-opacity="0"/>
</linearGradient>
</defs>
</svg>
